<?xml version="1.0" ?><svg width="128px" height="128px" viewBox="0 0 128 128" xmlns="http://www.w3.org/2000/svg"><title/><path d="M64.34,14.66A8,8,0,0,0,70,17a8,8,0,0,0-8,8,8,8,0,0,0-8-8,8,8,0,0,0,8-8A8,8,0,0,0,64.34,14.66Z" style="fill: #fcd116"/><path d="M30.81,50.19A13,13,0,0,0,40,54,13,13,0,0,0,27,67,13,13,0,0,0,14,54,13,13,0,0,0,27,41,13,13,0,0,0,30.81,50.19Z" style="fill: #cbdb2e"/><path d="M93.22,92.78A11,11,0,0,0,101,96a11,11,0,0,0-11,11A11,11,0,0,0,79,96,11,11,0,0,0,90,85,11,11,0,0,0,93.22,92.78Z" style="fill: #fcd116"/><path d="M85.56,38.42A177.85,177.85,0,0,1,107.11,8.87a5,5,0,0,1,7.06-.2l.1.1a5,5,0,0,1,.1,7A172,172,0,0,0,94.19,43.47C85.68,58,71.79,69.18,64.88,74.16l-1.3,1.3-7.19-7.2L57.62,67C63.1,63.2,77.41,52.36,85.56,38.42Z" style="fill: #a2542a"/><path d="M114.27,8.77l-.1-.1a5,5,0,0,0-2.27-1.2,5,5,0,0,1-1.22,4.59A172,172,0,0,0,90.51,39.79C82,54.35,68.11,65.5,61.2,70.48l-1.3,1.3,3.68,3.68,1.3-1.3c6.91-5,20.8-16.13,29.31-30.69a172,172,0,0,1,20.18-27.73A5,5,0,0,0,114.27,8.77Z" style="fill: #bf7f66"/><g><path d="M79.88,54.1A124.9,124.9,0,0,1,60.71,71.16l-.72.72,3.58,3.59,1.3-1.3A123.71,123.71,0,0,0,85.08,56L83.15,54A2.26,2.26,0,0,0,79.88,54.1Z" style="fill: #d3987f"/><path d="M90.55,39.6a2.71,2.71,0,0,0,.39,3.34l2.22,2.22c.52-.84,2.81-4.8,6.29-10.05l-2.17-2.28a1.65,1.65,0,0,0-2.57.23C93.41,35,92,37.21,90.55,39.6Z" style="fill: #d3987f"/><path d="M111.17,7.35c1.9,4.46-.65,3.58-10.59,17.19a2,2,0,0,0,.2,2.6l2.46,2.46a144.21,144.21,0,0,1,11.14-13.87A5,5,0,0,0,111.17,7.35Z" style="fill: #d3987f"/></g><polygon points="66.9 78.77 54.17 84.43 46.39 76.65 52.05 63.93 56.39 68.26 63.58 75.46 66.9 78.77" style="fill: #f9d8a2"/><polygon points="60.58 72.46 56.39 68.26 54.75 66.62 59.2 71.08 60.58 72.46" style="fill: #f2c05c"/><polygon points="62.52 74.39 60.58 72.46 62.52 74.4 62.52 74.39" style="fill: #f2c05c"/><path d="M52,63.93,46.39,76.65l3.41,3.41h0a9.57,9.57,0,0,0,2.87-15.51Z" style="fill: #f2c05c"/><path d="M54.1,93.17a47,47,0,0,1-13.37,28.74c-2.7,2.7-7.22-.09-12-5s-10-12-13.86-17.63c-3.54-5.22-5.95-9.23-5.95-9.23C28,71,46.39,76.65,46.39,76.65l7.78,7.78Z" style="fill: #f2c05c"/><path d="M54.1,93.17a47,47,0,0,1-13.37,28.74c-2.7,2.7-7.22-.09-12-5s-10-12-13.86-17.63c-3.54-5.22-5.95-9.23-5.95-9.23C28,71,46.39,76.65,46.39,76.65l7.78,7.78Z" style="fill: #f9d8a2"/><path d="M44.95,114l1.27,1.27a45.23,45.23,0,0,1-5.49,6.64c-2.7,2.7-7.22-.09-12-5s-10-12-13.86-17.63c-3.54-5.22-5.95-9.23-5.95-9.23C28,71,46.39,76.65,46.39,76.65l3.81,3.81-5.25,5.25A20,20,0,0,0,44.95,114Z" style="fill: #f2c05c"/><path d="M28.32,109.66,25,112.93A162.11,162.11,0,0,1,14.86,99.32c-3.54-5.22-5.95-9.23-5.95-9.23C23.76,75.25,38.17,75.36,43.85,76.15L30.13,89.87c-3.22,3.22-4.59,8.15-1.21,13.46A5.06,5.06,0,0,1,28.32,109.66Z" style="fill: #d39d48"/><g><path d="M116.41,6.67a8,8,0,0,0-11.48.14C82.34,30.63,85.44,43.62,56.51,64.14c-2.26-2.26-3.08-3.53-5-3.17s-2,1.24-6.87,12.25C38.54,72.28,22.87,71.89,6.79,88a3,3,0,0,0-.45,3.67c7,11.7,26.79,42.12,36.51,32.4A50,50,0,0,0,57.09,93.47c.4-3.94-5.57-4.56-6-.61a44,44,0,0,1-12.5,26.92c-1,.94-4.45-1.82-5.49-2.73,3-2.74,7.87-7.66,10.89-12.69,2-3.4-3.1-6.49-5.14-3.09-2.68,4.47-7.3,9-10,11.52a142.15,142.15,0,0,1-10.08-13,55.05,55.05,0,0,1,6.5-5c3.4-2,.31-7.19-3.09-5.14a56.39,56.39,0,0,0-6.8,5.17c-.94-1.44-1.85-2.85-2.7-4.23C27.8,76.64,41.67,78.65,44.85,79.36c7.57,7.57,7.46,7.79,8.8,8s1.61-.15,14.46-5.87a3,3,0,0,0,.9-4.86l-1-1C75.73,69.87,88.58,59,96.78,45A169.22,169.22,0,0,1,116.55,17.8,8,8,0,0,0,116.41,6.67ZM54.83,80.85,50,76l3-6.85,8.67,8.67Zm57.35-67.17C91,36.23,93,50,63.68,71.32l-2.87-2.87c29.2-21.13,27-34.82,48.48-57.51A2,2,0,0,1,112.19,13.68Z" style="fill: #31352e"/><path d="M14,57A10,10,0,0,1,24,67a3,3,0,0,0,6,0A10,10,0,0,1,40,57a3,3,0,0,0,0-6A10,10,0,0,1,30,41a3,3,0,0,0-6,0A10,10,0,0,1,14,51a3,3,0,0,0,0,6Zm13-6.68A16.12,16.12,0,0,0,30.68,54,16.12,16.12,0,0,0,27,57.68,16.12,16.12,0,0,0,23.32,54,16.12,16.12,0,0,0,27,50.32Z" style="fill: #31352e"/><path d="M101,93a8,8,0,0,1-8-8,3,3,0,0,0-6,0,8,8,0,0,1-8,8,3,3,0,0,0,0,6,8,8,0,0,1,8,8,3,3,0,0,0,6,0,8,8,0,0,1,8-8,3,3,0,0,0,0-6ZM90,98.35A14.14,14.14,0,0,0,87.65,96,14.14,14.14,0,0,0,90,93.65,14.14,14.14,0,0,0,92.35,96,14.14,14.14,0,0,0,90,98.35Z" style="fill: #31352e"/><path d="M54,20a5,5,0,0,1,5,5,3,3,0,0,0,6,0,5,5,0,0,1,5-5,3,3,0,0,0,0-6,5,5,0,0,1-5-5,3,3,0,0,0-6,0,5,5,0,0,1-5,5,3,3,0,0,0,0,6Zm8-3.46.46.46-.46.46L61.54,17Z" style="fill: #31352e"/></g></svg>